STARTFONT 2.3
FONT -FontForge-Shadows Into Light-Book-R-Normal--8-80-72-72-P-33-ISO10646-1
SIZE 8 72 72  2
FONTBOUNDINGBOX 11 14 -1 -4
COMMENT "Generated by fontforge, http://fontforge.sourceforge.net"
COMMENT "Copyright (c) 2010, Kimberly Geswein (kimberlygeswein.com)"
STARTPROPERTIES 40
FOUNDRY "FontForge"
FAMILY_NAME "Shadows Into Light"
WEIGHT_NAME "Book"
SLANT "R"
SETWIDTH_NAME "Normal"
ADD_STYLE_NAME ""
PIXEL_SIZE 8
POINT_SIZE 80
RESOLUTION_X 72
RESOLUTION_Y 72
SPACING "P"
AVERAGE_WIDTH 33
CHARSET_REGISTRY "ISO10646"
CHARSET_ENCODING "1"
FONTNAME_REGISTRY ""
CHARSET_COLLECTIONS "ISO8859-2 ISO8859-9 ISO8859-4 ISO10646-1"
BITS_PER_PIXEL 2
FONT_NAME "ShadowsIntoLight"
FACE_NAME "Shadows Into Light"
COPYRIGHT "Copyright (c) 2010, Kimberly Geswein (kimberlygeswein.com)"
FONT_VERSION "001.000"
FONT_ASCENT 6
FONT_DESCENT 2
UNDERLINE_POSITION 0
UNDERLINE_THICKNESS 0
X_HEIGHT 4
CAP_HEIGHT 5
RAW_ASCENT 799
RAW_DESCENT 200
NORM_SPACE 4
RELATIVE_WEIGHT 40
RELATIVE_SETWIDTH 50
SUPERSCRIPT_X 0
SUPERSCRIPT_Y 3
SUPERSCRIPT_SIZE 5
SUBSCRIPT_X 0
SUBSCRIPT_Y 1
SUBSCRIPT_SIZE 5
AVG_LOWERCASE_WIDTH 30
AVG_UPPERCASE_WIDTH 38
ENDPROPERTIES
CHARS 352
STARTCHAR space
ENCODING 32
SWIDTH 450 0
DWIDTH 4 0
BBX 1 1 0 0
BITMAP
00
ENDCHAR
STARTCHAR exclam
ENCODING 33
SWIDTH 137 0
DWIDTH 1 0
BBX 1 4 0 3
BITMAP
40
40
40
40
ENDCHAR
STARTCHAR quotedbl
ENCODING 34
SWIDTH 212 0
DWIDTH 2 0
BBX 2 2 0 4
BITMAP
50
50
ENDCHAR
STARTCHAR numbersign
ENCODING 35
SWIDTH 450 0
DWIDTH 4 0
BBX 3 4 0 1
BITMAP
14
68
18
64
ENDCHAR
STARTCHAR dollar
ENCODING 36
SWIDTH 445 0
DWIDTH 4 0
BBX 4 7 0 -1
BITMAP
10
24
50
65
14
14
04
ENDCHAR
STARTCHAR percent
ENCODING 37
SWIDTH 450 0
DWIDTH 4 0
BBX 4 6 0 0
BITMAP
44
54
50
15
14
10
ENDCHAR
STARTCHAR ampersand
ENCODING 38
SWIDTH 356 0
DWIDTH 3 0
BBX 2 3 0 1
BITMAP
10
60
60
ENDCHAR
STARTCHAR quotesingle
ENCODING 39
SWIDTH 155 0
DWIDTH 1 0
BBX 1 2 0 3
BITMAP
40
40
ENDCHAR
STARTCHAR parenleft
ENCODING 40
SWIDTH 291 0
DWIDTH 2 0
BBX 2 7 0 0
BITMAP
10
10
40
40
40
40
50
ENDCHAR
STARTCHAR parenright
ENCODING 41
SWIDTH 241 0
DWIDTH 2 0
BBX 2 5 0 1
BITMAP
40
10
10
10
10
ENDCHAR
STARTCHAR asterisk
ENCODING 42
SWIDTH 481 0
DWIDTH 4 0
BBX 3 3 0 1
BITMAP
54
78
64
ENDCHAR
STARTCHAR plus
ENCODING 43
SWIDTH 466 0
DWIDTH 4 0
BBX 3 3 0 1
BITMAP
10
64
10
ENDCHAR
STARTCHAR comma
ENCODING 44
SWIDTH 112 0
DWIDTH 1 0
BBX 1 2 0 -1
BITMAP
40
40
ENDCHAR
STARTCHAR hyphen
ENCODING 45
SWIDTH 399 0
DWIDTH 3 0
BBX 3 2 0 1
BITMAP
14
50
ENDCHAR
STARTCHAR period
ENCODING 46
SWIDTH 128 0
DWIDTH 1 0
BBX 1 1 0 0
BITMAP
40
ENDCHAR
STARTCHAR slash
ENCODING 47
SWIDTH 306 0
DWIDTH 2 0
BBX 2 6 0 -1
BITMAP
10
10
10
40
40
40
ENDCHAR
STARTCHAR zero
ENCODING 48
SWIDTH 308 0
DWIDTH 2 0
BBX 3 4 0 0
BITMAP
50
44
40
50
ENDCHAR
STARTCHAR one
ENCODING 49
SWIDTH 112 0
DWIDTH 1 0
BBX 1 5 0 0
BITMAP
40
40
40
40
40
ENDCHAR
STARTCHAR two
ENCODING 50
SWIDTH 512 0
DWIDTH 4 0
BBX 3 5 0 0
BITMAP
10
44
04
10
24
ENDCHAR
STARTCHAR three
ENCODING 51
SWIDTH 461 0
DWIDTH 4 0
BBX 4 6 0 0
BITMAP
14
44
24
11
04
14
ENDCHAR
STARTCHAR four
ENCODING 52
SWIDTH 503 0
DWIDTH 4 0
BBX 3 6 0 0
BITMAP
08
18
14
98
04
04
ENDCHAR
STARTCHAR five
ENCODING 53
SWIDTH 478 0
DWIDTH 4 0
BBX 4 6 0 0
BITMAP
05
90
54
94
04
10
ENDCHAR
STARTCHAR six
ENCODING 54
SWIDTH 375 0
DWIDTH 3 0
BBX 3 6 0 0
BITMAP
40
40
40
54
54
60
ENDCHAR
STARTCHAR seven
ENCODING 55
SWIDTH 458 0
DWIDTH 4 0
BBX 4 6 0 0
BITMAP
59
04
04
04
04
04
ENDCHAR
STARTCHAR eight
ENCODING 56
SWIDTH 333 0
DWIDTH 3 0
BBX 3 6 0 0
BITMAP
10
54
50
60
10
54
ENDCHAR
STARTCHAR nine
ENCODING 57
SWIDTH 475 0
DWIDTH 4 0
BBX 4 6 0 0
BITMAP
04
59
55
51
01
01
ENDCHAR
STARTCHAR colon
ENCODING 58
SWIDTH 120 0
DWIDTH 1 0
BBX 1 1 0 0
BITMAP
00
ENDCHAR
STARTCHAR semicolon
ENCODING 59
SWIDTH 121 0
DWIDTH 1 0
BBX 1 2 0 -1
BITMAP
40
40
ENDCHAR
STARTCHAR less
ENCODING 60
SWIDTH 409 0
DWIDTH 3 0
BBX 3 4 0 1
BITMAP
08
10
50
18
ENDCHAR
STARTCHAR equal
ENCODING 61
SWIDTH 433 0
DWIDTH 3 0
BBX 3 3 0 0
BITMAP
54
14
40
ENDCHAR
STARTCHAR greater
ENCODING 62
SWIDTH 450 0
DWIDTH 4 0
BBX 3 4 0 1
BITMAP
64
08
14
50
ENDCHAR
STARTCHAR question
ENCODING 63
SWIDTH 445 0
DWIDTH 4 0
BBX 4 8 0 0
BITMAP
04
51
04
14
20
00
00
10
ENDCHAR
STARTCHAR at
ENCODING 64
SWIDTH 945 0
DWIDTH 8 0
BBX 7 7 0 0
BITMAP
0550
1544
1544
4544
5410
4004
1550
ENDCHAR
STARTCHAR A
ENCODING 65
SWIDTH 390 0
DWIDTH 3 0
BBX 4 6 0 0
BITMAP
50
50
50
59
94
44
ENDCHAR
STARTCHAR B
ENCODING 66
SWIDTH 537 0
DWIDTH 4 0
BBX 4 6 0 0
BITMAP
58
84
66
51
58
10
ENDCHAR
STARTCHAR C
ENCODING 67
SWIDTH 487 0
DWIDTH 4 0
BBX 4 6 0 0
BITMAP
14
10
40
40
45
54
ENDCHAR
STARTCHAR D
ENCODING 68
SWIDTH 554 0
DWIDTH 4 0
BBX 4 6 0 0
BITMAP
54
51
11
11
18
10
ENDCHAR
STARTCHAR E
ENCODING 69
SWIDTH 474 0
DWIDTH 4 0
BBX 4 6 0 0
BITMAP
54
90
44
50
45
50
ENDCHAR
STARTCHAR F
ENCODING 70
SWIDTH 428 0
DWIDTH 3 0
BBX 3 6 0 0
BITMAP
04
90
80
94
80
40
ENDCHAR
STARTCHAR G
ENCODING 71
SWIDTH 591 0
DWIDTH 5 0
BBX 5 6 0 -1
BITMAP
1400
1000
4240
4200
6500
0100
ENDCHAR
STARTCHAR H
ENCODING 72
SWIDTH 424 0
DWIDTH 3 0
BBX 3 5 0 0
BITMAP
44
44
58
44
44
ENDCHAR
STARTCHAR I
ENCODING 73
SWIDTH 153 0
DWIDTH 1 0
BBX 1 6 0 0
BITMAP
40
40
40
40
40
40
ENDCHAR
STARTCHAR J
ENCODING 74
SWIDTH 371 0
DWIDTH 3 0
BBX 3 6 0 -1
BITMAP
04
04
04
04
44
10
ENDCHAR
STARTCHAR K
ENCODING 75
SWIDTH 524 0
DWIDTH 4 0
BBX 4 5 0 0
BITMAP
44
54
50
65
50
ENDCHAR
STARTCHAR L
ENCODING 76
SWIDTH 537 0
DWIDTH 4 0
BBX 4 5 0 0
BITMAP
80
80
80
81
94
ENDCHAR
STARTCHAR M
ENCODING 77
SWIDTH 682 0
DWIDTH 5 0
BBX 5 6 0 0
BITMAP
9080
5140
5540
4940
4040
4040
ENDCHAR
STARTCHAR N
ENCODING 78
SWIDTH 541 0
DWIDTH 4 0
BBX 4 6 0 0
BITMAP
01
81
61
45
42
41
ENDCHAR
STARTCHAR O
ENCODING 79
SWIDTH 382 0
DWIDTH 3 0
BBX 3 6 0 0
BITMAP
10
58
44
44
44
60
ENDCHAR
STARTCHAR P
ENCODING 80
SWIDTH 508 0
DWIDTH 4 0
BBX 4 7 0 0
BITMAP
04
91
45
54
40
40
40
ENDCHAR
STARTCHAR Q
ENCODING 81
SWIDTH 512 0
DWIDTH 4 0
BBX 4 6 0 0
BITMAP
25
41
41
45
45
55
ENDCHAR
STARTCHAR R
ENCODING 82
SWIDTH 503 0
DWIDTH 4 0
BBX 4 6 0 0
BITMAP
96
44
90
A0
45
40
ENDCHAR
STARTCHAR S
ENCODING 83
SWIDTH 541 0
DWIDTH 4 0
BBX 4 6 0 0
BITMAP
14
50
40
55
02
14
ENDCHAR
STARTCHAR T
ENCODING 84
SWIDTH 595 0
DWIDTH 5 0
BBX 5 6 0 0
BITMAP
1540
5400
0400
0500
0100
0100
ENDCHAR
STARTCHAR U
ENCODING 85
SWIDTH 450 0
DWIDTH 4 0
BBX 4 6 0 -1
BITMAP
41
45
49
49
51
01
ENDCHAR
STARTCHAR V
ENCODING 86
SWIDTH 524 0
DWIDTH 4 0
BBX 4 6 0 0
BITMAP
01
41
41
11
14
08
ENDCHAR
STARTCHAR W
ENCODING 87
SWIDTH 878 0
DWIDTH 7 0
BBX 7 6 0 0
BITMAP
0004
4204
4154
1450
2460
1410
ENDCHAR
STARTCHAR X
ENCODING 88
SWIDTH 461 0
DWIDTH 4 0
BBX 4 6 0 0
BITMAP
01
44
24
20
54
44
ENDCHAR
STARTCHAR Y
ENCODING 89
SWIDTH 483 0
DWIDTH 4 0
BBX 4 6 0 0
BITMAP
01
41
14
18
04
10
ENDCHAR
STARTCHAR Z
ENCODING 90
SWIDTH 670 0
DWIDTH 5 0
BBX 5 6 0 0
BITMAP
5540
0200
0500
1400
1000
A940
ENDCHAR
STARTCHAR bracketleft
ENCODING 91
SWIDTH 470 0
DWIDTH 4 0
BBX 3 10 0 -1
BITMAP
54
40
40
40
40
40
40
40
50
24
ENDCHAR
STARTCHAR backslash
ENCODING 92
SWIDTH 554 0
DWIDTH 4 0
BBX 5 8 0 0
BITMAP
4000
1000
1000
1400
0400
0500
0200
0140
ENDCHAR
STARTCHAR bracketright
ENCODING 93
SWIDTH 512 0
DWIDTH 4 0
BBX 4 11 0 -1
BITMAP
55
42
01
01
01
01
01
01
01
02
05
ENDCHAR
STARTCHAR asciicircum
ENCODING 94
SWIDTH 390 0
DWIDTH 3 0
BBX 3 3 0 5
BITMAP
10
54
44
ENDCHAR
STARTCHAR underscore
ENCODING 95
SWIDTH 612 0
DWIDTH 5 0
BBX 5 2 0 0
BITMAP
0140
5500
ENDCHAR
STARTCHAR grave
ENCODING 96
SWIDTH 155 0
DWIDTH 1 0
BBX 1 1 0 5
BITMAP
40
ENDCHAR
STARTCHAR a
ENCODING 97
SWIDTH 366 0
DWIDTH 3 0
BBX 3 4 0 0
BITMAP
24
54
64
84
ENDCHAR
STARTCHAR b
ENCODING 98
SWIDTH 442 0
DWIDTH 4 0
BBX 4 7 0 0
BITMAP
40
40
40
58
85
48
90
ENDCHAR
STARTCHAR c
ENCODING 99
SWIDTH 390 0
DWIDTH 3 0
BBX 3 5 0 0
BITMAP
10
50
40
44
54
ENDCHAR
STARTCHAR d
ENCODING 100
SWIDTH 316 0
DWIDTH 3 0
BBX 3 7 0 0
BITMAP
14
14
14
64
54
54
94
ENDCHAR
STARTCHAR e
ENCODING 101
SWIDTH 461 0
DWIDTH 4 0
BBX 4 4 0 0
BITMAP
18
90
85
54
ENDCHAR
STARTCHAR f
ENCODING 102
SWIDTH 345 0
DWIDTH 3 0
BBX 3 7 0 0
BITMAP
20
50
50
64
50
10
10
ENDCHAR
STARTCHAR g
ENCODING 103
SWIDTH 437 0
DWIDTH 4 0
BBX 4 9 0 -4
BITMAP
04
18
58
64
45
05
04
04
10
ENDCHAR
STARTCHAR h
ENCODING 104
SWIDTH 466 0
DWIDTH 4 0
BBX 4 6 0 0
BITMAP
40
40
59
61
91
41
ENDCHAR
STARTCHAR i
ENCODING 105
SWIDTH 132 0
DWIDTH 1 0
BBX 1 5 0 0
BITMAP
40
40
40
40
40
ENDCHAR
STARTCHAR j
ENCODING 106
SWIDTH 112 0
DWIDTH 1 0
BBX 2 7 -1 -3
BITMAP
10
10
10
10
10
10
50
ENDCHAR
STARTCHAR k
ENCODING 107
SWIDTH 428 0
DWIDTH 3 0
BBX 3 6 0 0
BITMAP
40
44
48
60
90
54
ENDCHAR
STARTCHAR l
ENCODING 108
SWIDTH 137 0
DWIDTH 1 0
BBX 1 7 0 0
BITMAP
40
40
40
40
40
40
40
ENDCHAR
STARTCHAR m
ENCODING 109
SWIDTH 579 0
DWIDTH 5 0
BBX 5 5 0 0
BITMAP
4000
6600
6900
9900
4040
ENDCHAR
STARTCHAR n
ENCODING 110
SWIDTH 483 0
DWIDTH 4 0
BBX 4 5 0 0
BITMAP
44
51
91
91
41
ENDCHAR
STARTCHAR o
ENCODING 111
SWIDTH 266 0
DWIDTH 2 0
BBX 2 4 0 0
BITMAP
50
50
50
90
ENDCHAR
STARTCHAR p
ENCODING 112
SWIDTH 482 0
DWIDTH 4 0
BBX 4 6 0 -2
BITMAP
55
85
54
80
40
40
ENDCHAR
STARTCHAR q
ENCODING 113
SWIDTH 408 0
DWIDTH 3 0
BBX 4 6 0 -2
BITMAP
14
48
48
54
04
01
ENDCHAR
STARTCHAR r
ENCODING 114
SWIDTH 396 0
DWIDTH 3 0
BBX 3 4 0 0
BITMAP
54
50
50
50
ENDCHAR
STARTCHAR s
ENCODING 115
SWIDTH 366 0
DWIDTH 3 0
BBX 3 4 0 0
BITMAP
50
40
58
14
ENDCHAR
STARTCHAR t
ENCODING 116
SWIDTH 268 0
DWIDTH 2 0
BBX 2 6 0 0
BITMAP
40
50
90
40
40
40
ENDCHAR
STARTCHAR u
ENCODING 117
SWIDTH 387 0
DWIDTH 3 0
BBX 3 4 0 0
BITMAP
44
44
48
64
ENDCHAR
STARTCHAR v
ENCODING 118
SWIDTH 354 0
DWIDTH 3 0
BBX 3 4 0 0
BITMAP
44
44
24
14
ENDCHAR
STARTCHAR w
ENCODING 119
SWIDTH 566 0
DWIDTH 5 0
BBX 5 4 0 0
BITMAP
5500
6500
3240
2000
ENDCHAR
STARTCHAR x
ENCODING 120
SWIDTH 454 0
DWIDTH 4 0
BBX 4 6 0 -1
BITMAP
04
54
20
28
11
10
ENDCHAR
STARTCHAR y
ENCODING 121
SWIDTH 363 0
DWIDTH 3 0
BBX 3 7 0 -3
BITMAP
44
54
28
08
04
04
04
ENDCHAR
STARTCHAR z
ENCODING 122
SWIDTH 618 0
DWIDTH 5 0
BBX 5 4 0 0
BITMAP
5800
0800
1000
2640
ENDCHAR
STARTCHAR braceleft
ENCODING 123
SWIDTH 348 0
DWIDTH 3 0
BBX 3 8 0 -1
BITMAP
14
40
10
40
90
40
40
10
ENDCHAR
STARTCHAR bar
ENCODING 124
SWIDTH 137 0
DWIDTH 1 0
BBX 1 7 0 0
BITMAP
40
40
40
40
40
40
40
ENDCHAR
STARTCHAR braceright
ENCODING 125
SWIDTH 348 0
DWIDTH 3 0
BBX 3 8 0 -1
BITMAP
50
10
10
14
10
04
04
60
ENDCHAR
STARTCHAR asciitilde
ENCODING 126
SWIDTH 458 0
DWIDTH 4 0
BBX 3 2 0 4
BITMAP
54
04
ENDCHAR
STARTCHAR nonbreakingspace
ENCODING 160
SWIDTH 450 0
DWIDTH 4 0
BBX 1 1 0 0
BITMAP
00
ENDCHAR
STARTCHAR exclamdown
ENCODING 161
SWIDTH 137 0
DWIDTH 1 0
BBX 1 3 0 -1
BITMAP
40
40
40
ENDCHAR
STARTCHAR cent
ENCODING 162
SWIDTH 394 0
DWIDTH 3 0
BBX 3 7 0 -1
BITMAP
10
20
50
50
54
64
10
ENDCHAR
STARTCHAR sterling
ENCODING 163
SWIDTH 539 0
DWIDTH 4 0
BBX 4 6 0 0
BITMAP
01
15
64
50
10
25
ENDCHAR
STARTCHAR currency
ENCODING 164
SWIDTH 500 0
DWIDTH 4 0
BBX 4 4 0 1
BITMAP
29
14
14
68
ENDCHAR
STARTCHAR yen
ENCODING 165
SWIDTH 478 0
DWIDTH 4 0
BBX 3 6 0 0
BITMAP
18
24
14
28
64
10
ENDCHAR
STARTCHAR brokenbar
ENCODING 166
SWIDTH 137 0
DWIDTH 1 0
BBX 1 7 0 0
BITMAP
40
40
40
40
40
40
40
ENDCHAR
STARTCHAR section
ENCODING 167
SWIDTH 366 0
DWIDTH 3 0
BBX 3 6 0 0
BITMAP
50
40
98
54
58
14
ENDCHAR
STARTCHAR dieresis
ENCODING 168
SWIDTH 306 0
DWIDTH 2 0
BBX 2 1 0 5
BITMAP
50
ENDCHAR
STARTCHAR copyright
ENCODING 169
SWIDTH 485 0
DWIDTH 4 0
BBX 4 6 0 0
BITMAP
04
25
55
52
59
64
ENDCHAR
STARTCHAR ordfeminine
ENCODING 170
SWIDTH 227 0
DWIDTH 2 0
BBX 2 2 0 1
BITMAP
50
50
ENDCHAR
STARTCHAR guillemotleft
ENCODING 171
SWIDTH 652 0
DWIDTH 5 0
BBX 5 4 0 1
BITMAP
0940
2500
5800
1940
ENDCHAR
STARTCHAR logicalnot
ENCODING 172
SWIDTH 539 0
DWIDTH 4 0
BBX 3 2 1 1
BITMAP
54
04
ENDCHAR
STARTCHAR uni00AD
ENCODING 173
SWIDTH 399 0
DWIDTH 3 0
BBX 3 2 0 1
BITMAP
14
50
ENDCHAR
STARTCHAR registered
ENCODING 174
SWIDTH 382 0
DWIDTH 3 0
BBX 4 6 0 0
BITMAP
04
15
55
65
55
54
ENDCHAR
STARTCHAR macron
ENCODING 175
SWIDTH 399 0
DWIDTH 3 0
BBX 3 1 0 5
BITMAP
54
ENDCHAR
STARTCHAR degree
ENCODING 176
SWIDTH 201 0
DWIDTH 2 0
BBX 2 2 0 3
BITMAP
40
50
ENDCHAR
STARTCHAR plusminus
ENCODING 177
SWIDTH 466 0
DWIDTH 4 0
BBX 3 4 0 0
BITMAP
10
64
10
54
ENDCHAR
STARTCHAR twosuperior
ENCODING 178
SWIDTH 318 0
DWIDTH 3 0
BBX 2 3 0 1
BITMAP
40
10
50
ENDCHAR
STARTCHAR threesuperior
ENCODING 179
SWIDTH 280 0
DWIDTH 2 0
BBX 2 3 0 1
BITMAP
50
50
10
ENDCHAR
STARTCHAR acute
ENCODING 180
SWIDTH 155 0
DWIDTH 1 0
BBX 1 1 0 5
BITMAP
40
ENDCHAR
STARTCHAR mu
ENCODING 181
SWIDTH 387 0
DWIDTH 3 0
BBX 3 5 0 -1
BITMAP
44
48
98
94
40
ENDCHAR
STARTCHAR paragraph
ENCODING 182
SWIDTH 447 0
DWIDTH 4 0
BBX 4 5 0 0
BITMAP
78
A8
08
09
05
ENDCHAR
STARTCHAR periodcentered
ENCODING 183
SWIDTH 128 0
DWIDTH 1 0
BBX 1 1 0 1
BITMAP
00
ENDCHAR
STARTCHAR cedilla
ENCODING 184
SWIDTH 322 0
DWIDTH 3 0
BBX 3 3 0 -3
BITMAP
50
24
50
ENDCHAR
STARTCHAR onesuperior
ENCODING 185
SWIDTH 112 0
DWIDTH 1 0
BBX 1 3 0 1
BITMAP
40
40
40
ENDCHAR
STARTCHAR ordmasculine
ENCODING 186
SWIDTH 212 0
DWIDTH 2 0
BBX 2 2 0 1
BITMAP
50
50
ENDCHAR
STARTCHAR guillemotright
ENCODING 187
SWIDTH 625 0
DWIDTH 5 0
BBX 5 4 0 1
BITMAP
6900
0840
1600
5400
ENDCHAR
STARTCHAR onequarter
ENCODING 188
SWIDTH 678 0
DWIDTH 5 0
BBX 5 7 0 -1
BITMAP
0400
1000
5200
5540
5540
4100
4000
ENDCHAR
STARTCHAR onehalf
ENCODING 189
SWIDTH 693 0
DWIDTH 6 0
BBX 5 7 0 -1
BITMAP
0400
0400
4400
5500
5100
1540
4000
ENDCHAR
STARTCHAR threequarters
ENCODING 190
SWIDTH 868 0
DWIDTH 7 0
BBX 5 7 0 -1
BITMAP
0040
5080
2580
0640
1640
0440
0400
ENDCHAR
STARTCHAR questiondown
ENCODING 191
SWIDTH 541 0
DWIDTH 4 0
BBX 3 7 1 -1
BITMAP
10
00
10
10
50
40
54
ENDCHAR
STARTCHAR Agrave
ENCODING 192
SWIDTH 390 0
DWIDTH 3 0
BBX 4 7 0 0
BITMAP
10
20
60
54
49
54
44
ENDCHAR
STARTCHAR Aacute
ENCODING 193
SWIDTH 390 0
DWIDTH 3 0
BBX 4 8 0 0
BITMAP
10
00
50
50
50
59
94
44
ENDCHAR
STARTCHAR Acircumflex
ENCODING 194
SWIDTH 390 0
DWIDTH 3 0
BBX 4 8 0 0
BITMAP
50
04
50
50
50
59
94
44
ENDCHAR
STARTCHAR Atilde
ENCODING 195
SWIDTH 390 0
DWIDTH 3 0
BBX 4 8 0 0
BITMAP
54
14
50
50
50
59
94
44
ENDCHAR
STARTCHAR Adieresis
ENCODING 196
SWIDTH 390 0
DWIDTH 3 0
BBX 4 7 0 0
BITMAP
50
50
50
50
59
94
44
ENDCHAR
STARTCHAR Aring
ENCODING 197
SWIDTH 390 0
DWIDTH 3 0
BBX 4 7 0 0
BITMAP
A0
50
50
50
59
94
44
ENDCHAR
STARTCHAR AE
ENCODING 198
SWIDTH 708 0
DWIDTH 6 0
BBX 6 6 0 0
BITMAP
5540
5800
5840
5D00
9850
4500
ENDCHAR
STARTCHAR Ccedilla
ENCODING 199
SWIDTH 487 0
DWIDTH 4 0
BBX 4 9 0 -3
BITMAP
14
10
40
40
45
54
10
18
14
ENDCHAR
STARTCHAR Egrave
ENCODING 200
SWIDTH 474 0
DWIDTH 4 0
BBX 4 7 0 0
BITMAP
10
54
90
44
50
45
50
ENDCHAR
STARTCHAR Eacute
ENCODING 201
SWIDTH 474 0
DWIDTH 4 0
BBX 4 7 0 0
BITMAP
14
54
90
44
50
45
50
ENDCHAR
STARTCHAR Ecircumflex
ENCODING 202
SWIDTH 474 0
DWIDTH 4 0
BBX 4 9 0 0
BITMAP
10
14
40
54
90
44
50
45
50
ENDCHAR
STARTCHAR Edieresis
ENCODING 203
SWIDTH 474 0
DWIDTH 4 0
BBX 4 7 0 0
BITMAP
14
54
90
44
50
45
50
ENDCHAR
STARTCHAR Igrave
ENCODING 204
SWIDTH 153 0
DWIDTH 1 0
BBX 1 8 0 0
BITMAP
40
00
40
40
40
40
40
40
ENDCHAR
STARTCHAR Iacute
ENCODING 205
SWIDTH 153 0
DWIDTH 1 0
BBX 1 8 0 0
BITMAP
40
00
40
40
40
40
40
40
ENDCHAR
STARTCHAR Icircumflex
ENCODING 206
SWIDTH 153 0
DWIDTH 1 0
BBX 3 9 -1 0
BITMAP
10
14
40
10
10
10
10
10
10
ENDCHAR
STARTCHAR Idieresis
ENCODING 207
SWIDTH 153 0
DWIDTH 1 0
BBX 2 7 0 0
BITMAP
50
40
40
40
40
40
40
ENDCHAR
STARTCHAR Eth
ENCODING 208
SWIDTH 554 0
DWIDTH 4 0
BBX 4 6 0 0
BITMAP
54
51
11
11
68
10
ENDCHAR
STARTCHAR Ntilde
ENCODING 209
SWIDTH 541 0
DWIDTH 4 0
BBX 4 8 0 0
BITMAP
54
04
01
81
61
45
42
41
ENDCHAR
STARTCHAR Ograve
ENCODING 210
SWIDTH 382 0
DWIDTH 3 0
BBX 3 7 0 0
BITMAP
04
14
58
44
44
44
60
ENDCHAR
STARTCHAR Oacute
ENCODING 211
SWIDTH 382 0
DWIDTH 3 0
BBX 3 7 0 0
BITMAP
10
10
58
44
44
44
60
ENDCHAR
STARTCHAR Ocircumflex
ENCODING 212
SWIDTH 382 0
DWIDTH 3 0
BBX 3 8 0 0
BITMAP
10
54
54
58
44
44
44
60
ENDCHAR
STARTCHAR Otilde
ENCODING 213
SWIDTH 382 0
DWIDTH 3 0
BBX 4 7 0 0
BITMAP
51
18
58
44
44
44
60
ENDCHAR
STARTCHAR Odieresis
ENCODING 214
SWIDTH 382 0
DWIDTH 3 0
BBX 3 6 0 0
BITMAP
14
58
44
44
44
60
ENDCHAR
STARTCHAR multiply
ENCODING 215
SWIDTH 454 0
DWIDTH 4 0
BBX 3 3 0 1
BITMAP
04
20
54
ENDCHAR
STARTCHAR Oslash
ENCODING 216
SWIDTH 382 0
DWIDTH 3 0
BBX 3 7 0 -1
BITMAP
14
58
54
54
54
A0
40
ENDCHAR
STARTCHAR Ugrave
ENCODING 217
SWIDTH 450 0
DWIDTH 4 0
BBX 4 7 0 -1
BITMAP
10
41
45
49
49
51
01
ENDCHAR
STARTCHAR Uacute
ENCODING 218
SWIDTH 450 0
DWIDTH 4 0
BBX 4 7 0 -1
BITMAP
04
41
45
49
49
51
01
ENDCHAR
STARTCHAR Ucircumflex
ENCODING 219
SWIDTH 450 0
DWIDTH 4 0
BBX 4 9 0 -1
BITMAP
10
14
40
41
45
49
49
51
01
ENDCHAR
STARTCHAR Udieresis
ENCODING 220
SWIDTH 450 0
DWIDTH 4 0
BBX 4 7 0 -1
BITMAP
14
41
45
49
49
51
01
ENDCHAR
STARTCHAR Yacute
ENCODING 221
SWIDTH 483 0
DWIDTH 4 0
BBX 4 8 0 0
BITMAP
04
00
01
41
14
18
04
10
ENDCHAR
STARTCHAR Thorn
ENCODING 222
SWIDTH 398 0
DWIDTH 3 0
BBX 3 7 0 0
BITMAP
40
40
98
84
54
80
40
ENDCHAR
STARTCHAR germandbls
ENCODING 223
SWIDTH 537 0
DWIDTH 4 0
BBX 4 6 0 0
BITMAP
58
84
66
51
58
10
ENDCHAR
STARTCHAR agrave
ENCODING 224
SWIDTH 366 0
DWIDTH 3 0
BBX 3 6 0 0
BITMAP
10
10
24
54
64
84
ENDCHAR
STARTCHAR aacute
ENCODING 225
SWIDTH 366 0
DWIDTH 3 0
BBX 3 6 0 0
BITMAP
10
10
24
54
64
84
ENDCHAR
STARTCHAR acircumflex
ENCODING 226
SWIDTH 366 0
DWIDTH 3 0
BBX 3 8 0 0
BITMAP
10
54
44
00
24
54
64
84
ENDCHAR
STARTCHAR atilde
ENCODING 227
SWIDTH 366 0
DWIDTH 3 0
BBX 3 6 0 0
BITMAP
54
14
24
54
64
84
ENDCHAR
STARTCHAR adieresis
ENCODING 228
SWIDTH 366 0
DWIDTH 3 0
BBX 3 6 0 0
BITMAP
10
00
24
54
64
84
ENDCHAR
STARTCHAR aring
ENCODING 229
SWIDTH 366 0
DWIDTH 3 0
BBX 3 6 0 0
BITMAP
10
54
24
54
64
84
ENDCHAR
STARTCHAR ae
ENCODING 230
SWIDTH 705 0
DWIDTH 6 0
BBX 5 5 0 0
BITMAP
0140
2980
5D00
6840
8540
ENDCHAR
STARTCHAR ccedilla
ENCODING 231
SWIDTH 390 0
DWIDTH 3 0
BBX 3 8 0 -3
BITMAP
10
50
40
44
54
10
18
10
ENDCHAR
STARTCHAR egrave
ENCODING 232
SWIDTH 461 0
DWIDTH 4 0
BBX 4 6 0 0
BITMAP
10
10
18
90
85
54
ENDCHAR
STARTCHAR eacute
ENCODING 233
SWIDTH 461 0
DWIDTH 4 0
BBX 4 6 0 0
BITMAP
04
10
18
90
85
54
ENDCHAR
STARTCHAR ecircumflex
ENCODING 234
SWIDTH 461 0
DWIDTH 4 0
BBX 4 8 0 0
BITMAP
10
14
40
00
18
90
85
54
ENDCHAR
STARTCHAR edieresis
ENCODING 235
SWIDTH 461 0
DWIDTH 4 0
BBX 4 6 0 0
BITMAP
14
00
18
90
85
54
ENDCHAR
STARTCHAR igrave
ENCODING 236
SWIDTH 132 0
DWIDTH 1 0
BBX 1 7 0 0
BITMAP
40
40
40
40
40
40
40
ENDCHAR
STARTCHAR iacute
ENCODING 237
SWIDTH 132 0
DWIDTH 1 0
BBX 1 7 0 0
BITMAP
40
00
40
40
40
40
40
ENDCHAR
STARTCHAR icircumflex
ENCODING 238
SWIDTH 132 0
DWIDTH 1 0
BBX 3 8 -1 0
BITMAP
10
54
44
10
10
10
10
10
ENDCHAR
STARTCHAR idieresis
ENCODING 239
SWIDTH 132 0
DWIDTH 1 0
BBX 1 6 0 0
BITMAP
40
40
40
40
40
40
ENDCHAR
STARTCHAR eth
ENCODING 240
SWIDTH 481 0
DWIDTH 4 0
BBX 4 5 0 0
BITMAP
10
19
14
58
54
ENDCHAR
STARTCHAR ntilde
ENCODING 241
SWIDTH 483 0
DWIDTH 4 0
BBX 4 7 0 0
BITMAP
11
04
44
51
91
91
41
ENDCHAR
STARTCHAR ograve
ENCODING 242
SWIDTH 266 0
DWIDTH 2 0
BBX 2 6 0 0
BITMAP
40
10
50
50
50
90
ENDCHAR
STARTCHAR oacute
ENCODING 243
SWIDTH 266 0
DWIDTH 2 0
BBX 2 6 0 0
BITMAP
10
50
50
50
50
90
ENDCHAR
STARTCHAR ocircumflex
ENCODING 244
SWIDTH 266 0
DWIDTH 2 0
BBX 3 7 0 0
BITMAP
50
04
00
50
50
50
90
ENDCHAR
STARTCHAR otilde
ENCODING 245
SWIDTH 266 0
DWIDTH 2 0
BBX 3 6 0 0
BITMAP
54
60
50
50
50
90
ENDCHAR
STARTCHAR odieresis
ENCODING 246
SWIDTH 266 0
DWIDTH 2 0
BBX 2 6 0 0
BITMAP
50
00
50
50
50
90
ENDCHAR
STARTCHAR divide
ENCODING 247
SWIDTH 345 0
DWIDTH 3 0
BBX 3 1 0 2
BITMAP
54
ENDCHAR
STARTCHAR oslash
ENCODING 248
SWIDTH 266 0
DWIDTH 2 0
BBX 2 6 0 -1
BITMAP
10
60
60
90
90
40
ENDCHAR
STARTCHAR ugrave
ENCODING 249
SWIDTH 387 0
DWIDTH 3 0
BBX 3 6 0 0
BITMAP
10
00
44
44
48
64
ENDCHAR
STARTCHAR uacute
ENCODING 250
SWIDTH 387 0
DWIDTH 3 0
BBX 3 6 0 0
BITMAP
10
00
44
44
48
64
ENDCHAR
STARTCHAR ucircumflex
ENCODING 251
SWIDTH 387 0
DWIDTH 3 0
BBX 3 8 0 0
BITMAP
10
54
44
00
44
44
48
64
ENDCHAR
STARTCHAR udieresis
ENCODING 252
SWIDTH 387 0
DWIDTH 3 0
BBX 3 6 0 0
BITMAP
10
00
44
44
48
64
ENDCHAR
STARTCHAR yacute
ENCODING 253
SWIDTH 363 0
DWIDTH 3 0
BBX 3 9 0 -3
BITMAP
10
00
44
54
28
08
04
04
04
ENDCHAR
STARTCHAR thorn
ENCODING 254
SWIDTH 439 0
DWIDTH 4 0
BBX 4 5 0 0
BITMAP
55
84
54
40
40
ENDCHAR
STARTCHAR ydieresis
ENCODING 255
SWIDTH 363 0
DWIDTH 3 0
BBX 3 9 0 -3
BITMAP
10
00
44
54
28
08
04
04
04
ENDCHAR
STARTCHAR Amacron
ENCODING 256
SWIDTH 390 0
DWIDTH 3 0
BBX 4 7 0 0
BITMAP
54
50
50
50
59
94
44
ENDCHAR
STARTCHAR amacron
ENCODING 257
SWIDTH 366 0
DWIDTH 3 0
BBX 3 6 0 0
BITMAP
54
00
24
54
64
84
ENDCHAR
STARTCHAR Abreve
ENCODING 258
SWIDTH 390 0
DWIDTH 3 0
BBX 4 8 0 0
BITMAP
54
00
50
50
50
59
94
44
ENDCHAR
STARTCHAR abreve
ENCODING 259
SWIDTH 366 0
DWIDTH 3 0
BBX 3 6 0 0
BITMAP
54
10
24
54
64
84
ENDCHAR
STARTCHAR Aogonek
ENCODING 260
SWIDTH 390 0
DWIDTH 3 0
BBX 4 8 0 -2
BITMAP
50
50
50
59
94
44
04
09
ENDCHAR
STARTCHAR aogonek
ENCODING 261
SWIDTH 366 0
DWIDTH 3 0
BBX 4 6 0 -2
BITMAP
24
54
64
84
14
05
ENDCHAR
STARTCHAR Cacute
ENCODING 262
SWIDTH 487 0
DWIDTH 4 0
BBX 4 7 0 0
BITMAP
04
14
10
40
40
45
54
ENDCHAR
STARTCHAR cacute
ENCODING 263
SWIDTH 390 0
DWIDTH 3 0
BBX 3 7 0 0
BITMAP
10
00
10
50
40
44
54
ENDCHAR
STARTCHAR Ccircumflex
ENCODING 264
SWIDTH 487 0
DWIDTH 4 0
BBX 4 9 0 0
BITMAP
10
14
40
14
10
40
40
45
54
ENDCHAR
STARTCHAR ccircumflex
ENCODING 265
SWIDTH 390 0
DWIDTH 3 0
BBX 3 8 0 0
BITMAP
10
54
44
10
50
40
44
54
ENDCHAR
STARTCHAR Cdotaccent
ENCODING 266
SWIDTH 487 0
DWIDTH 4 0
BBX 4 7 0 0
BITMAP
10
14
10
40
40
45
54
ENDCHAR
STARTCHAR cdotaccent
ENCODING 267
SWIDTH 390 0
DWIDTH 3 0
BBX 3 5 0 0
BITMAP
10
50
40
44
54
ENDCHAR
STARTCHAR Ccaron
ENCODING 268
SWIDTH 487 0
DWIDTH 4 0
BBX 4 7 0 0
BITMAP
14
14
10
40
40
45
54
ENDCHAR
STARTCHAR ccaron
ENCODING 269
SWIDTH 390 0
DWIDTH 3 0
BBX 3 6 0 0
BITMAP
54
20
50
40
44
54
ENDCHAR
STARTCHAR Dcaron
ENCODING 270
SWIDTH 554 0
DWIDTH 4 0
BBX 4 7 0 0
BITMAP
14
54
51
11
11
18
10
ENDCHAR
STARTCHAR Emacron
ENCODING 274
SWIDTH 474 0
DWIDTH 4 0
BBX 4 7 0 0
BITMAP
54
54
90
44
50
45
50
ENDCHAR
STARTCHAR emacron
ENCODING 275
SWIDTH 461 0
DWIDTH 4 0
BBX 4 6 0 0
BITMAP
54
00
18
90
85
54
ENDCHAR
STARTCHAR Ebreve
ENCODING 276
SWIDTH 474 0
DWIDTH 4 0
BBX 4 7 0 0
BITMAP
14
54
90
44
50
45
50
ENDCHAR
STARTCHAR ebreve
ENCODING 277
SWIDTH 461 0
DWIDTH 4 0
BBX 4 6 0 0
BITMAP
14
10
18
90
85
54
ENDCHAR
STARTCHAR Edotaccent
ENCODING 278
SWIDTH 474 0
DWIDTH 4 0
BBX 4 7 0 0
BITMAP
10
54
90
44
50
45
50
ENDCHAR
STARTCHAR edotaccent
ENCODING 279
SWIDTH 461 0
DWIDTH 4 0
BBX 4 5 0 0
BITMAP
10
18
90
85
54
ENDCHAR
STARTCHAR Eogonek
ENCODING 280
SWIDTH 474 0
DWIDTH 4 0
BBX 4 7 0 -1
BITMAP
54
90
44
50
45
64
05
ENDCHAR
STARTCHAR eogonek
ENCODING 281
SWIDTH 461 0
DWIDTH 4 0
BBX 4 6 0 -2
BITMAP
18
90
85
54
10
14
ENDCHAR
STARTCHAR Ecaron
ENCODING 282
SWIDTH 474 0
DWIDTH 4 0
BBX 4 7 0 0
BITMAP
14
54
90
44
50
45
50
ENDCHAR
STARTCHAR ecaron
ENCODING 283
SWIDTH 461 0
DWIDTH 4 0
BBX 4 6 0 0
BITMAP
14
00
18
90
85
54
ENDCHAR
STARTCHAR Gcircumflex
ENCODING 284
SWIDTH 591 0
DWIDTH 5 0
BBX 5 9 0 -1
BITMAP
0400
1400
1100
1400
1000
4240
4200
6500
0100
ENDCHAR
STARTCHAR gcircumflex
ENCODING 285
SWIDTH 437 0
DWIDTH 4 0
BBX 4 12 0 -4
BITMAP
10
14
44
04
18
58
64
45
05
04
04
10
ENDCHAR
STARTCHAR Gbreve
ENCODING 286
SWIDTH 591 0
DWIDTH 5 0
BBX 5 8 0 -1
BITMAP
0500
0400
1400
1000
4240
4200
6500
0100
ENDCHAR
STARTCHAR gbreve
ENCODING 287
SWIDTH 437 0
DWIDTH 4 0
BBX 4 11 0 -4
BITMAP
14
00
04
18
58
64
45
05
04
04
10
ENDCHAR
STARTCHAR Gdotaccent
ENCODING 288
SWIDTH 591 0
DWIDTH 5 0
BBX 5 8 0 -1
BITMAP
0400
0000
0400
1000
4240
4200
6500
0100
ENDCHAR
STARTCHAR gdotaccent
ENCODING 289
SWIDTH 437 0
DWIDTH 4 0
BBX 4 9 0 -4
BITMAP
04
18
58
64
45
05
04
04
10
ENDCHAR
STARTCHAR Gcommaaccent
ENCODING 290
SWIDTH 591 0
DWIDTH 5 0
BBX 5 8 0 -3
BITMAP
1400
1000
4240
4200
6500
0100
0400
0400
ENDCHAR
STARTCHAR Hcircumflex
ENCODING 292
SWIDTH 424 0
DWIDTH 3 0
BBX 3 9 0 0
BITMAP
10
54
44
00
44
44
58
44
44
ENDCHAR
STARTCHAR hcircumflex
ENCODING 293
SWIDTH 466 0
DWIDTH 4 0
BBX 4 8 0 0
BITMAP
04
15
51
40
59
61
91
41
ENDCHAR
STARTCHAR Hbar
ENCODING 294
SWIDTH 424 0
DWIDTH 3 0
BBX 3 5 0 0
BITMAP
44
98
58
44
44
ENDCHAR
STARTCHAR hbar
ENCODING 295
SWIDTH 466 0
DWIDTH 4 0
BBX 4 6 0 0
BITMAP
40
90
99
61
91
41
ENDCHAR
STARTCHAR Itilde
ENCODING 296
SWIDTH 153 0
DWIDTH 1 0
BBX 3 8 -1 0
BITMAP
54
14
10
10
10
10
10
10
ENDCHAR
STARTCHAR itilde
ENCODING 297
SWIDTH 132 0
DWIDTH 1 0
BBX 3 6 -1 0
BITMAP
58
10
10
10
10
10
ENDCHAR
STARTCHAR imacron
ENCODING 299
SWIDTH 132 0
DWIDTH 1 0
BBX 3 6 -1 0
BITMAP
54
10
10
10
10
10
ENDCHAR
STARTCHAR Ibreve
ENCODING 300
SWIDTH 153 0
DWIDTH 1 0
BBX 2 8 0 0
BITMAP
50
00
40
40
40
40
40
40
ENDCHAR
STARTCHAR ibreve
ENCODING 301
SWIDTH 132 0
DWIDTH 1 0
BBX 2 6 0 0
BITMAP
90
40
40
40
40
40
ENDCHAR
STARTCHAR Iogonek
ENCODING 302
SWIDTH 153 0
DWIDTH 1 0
BBX 2 8 0 -2
BITMAP
40
40
40
40
40
40
40
50
ENDCHAR
STARTCHAR iogonek
ENCODING 303
SWIDTH 132 0
DWIDTH 1 0
BBX 2 7 0 -2
BITMAP
40
40
40
40
40
40
90
ENDCHAR
STARTCHAR Idotaccent
ENCODING 304
SWIDTH 153 0
DWIDTH 1 0
BBX 1 7 0 0
BITMAP
40
40
40
40
40
40
40
ENDCHAR
STARTCHAR dotlessi
ENCODING 305
SWIDTH 132 0
DWIDTH 1 0
BBX 1 5 0 0
BITMAP
40
40
40
40
40
ENDCHAR
STARTCHAR Jcircumflex
ENCODING 308
SWIDTH 371 0
DWIDTH 3 0
BBX 3 9 0 -1
BITMAP
10
14
44
04
04
04
04
44
10
ENDCHAR
STARTCHAR jcircumflex
ENCODING 309
SWIDTH 112 0
DWIDTH 1 0
BBX 3 11 -1 -3
BITMAP
10
54
44
00
10
10
10
10
10
10
50
ENDCHAR
STARTCHAR Kcommaaccent
ENCODING 310
SWIDTH 524 0
DWIDTH 4 0
BBX 4 7 0 -2
BITMAP
44
54
50
65
50
00
14
ENDCHAR
STARTCHAR kcommaaccent
ENCODING 311
SWIDTH 428 0
DWIDTH 3 0
BBX 3 9 0 -3
BITMAP
40
44
48
60
90
54
00
10
10
ENDCHAR
STARTCHAR Lacute
ENCODING 313
SWIDTH 537 0
DWIDTH 4 0
BBX 4 6 0 0
BITMAP
04
80
80
80
81
94
ENDCHAR
STARTCHAR lacute
ENCODING 314
SWIDTH 137 0
DWIDTH 1 0
BBX 1 9 0 0
BITMAP
40
00
40
40
40
40
40
40
40
ENDCHAR
STARTCHAR Lcommaaccent
ENCODING 315
SWIDTH 537 0
DWIDTH 4 0
BBX 4 7 0 -2
BITMAP
80
80
80
81
94
00
04
ENDCHAR
STARTCHAR lcommaaccent
ENCODING 316
SWIDTH 137 0
DWIDTH 1 0
BBX 1 10 0 -3
BITMAP
40
40
40
40
40
40
40
00
40
40
ENDCHAR
STARTCHAR Lcaron
ENCODING 317
SWIDTH 537 0
DWIDTH 4 0
BBX 4 7 0 0
BITMAP
14
00
80
80
80
81
94
ENDCHAR
STARTCHAR Ldot
ENCODING 319
SWIDTH 537 0
DWIDTH 4 0
BBX 4 5 0 0
BITMAP
80
80
80
85
94
ENDCHAR
STARTCHAR ldot
ENCODING 320
SWIDTH 267 0
DWIDTH 2 0
BBX 1 7 0 0
BITMAP
40
40
40
40
40
40
40
ENDCHAR
STARTCHAR Lslash
ENCODING 321
SWIDTH 537 0
DWIDTH 4 0
BBX 4 5 0 0
BITMAP
80
80
94
81
94
ENDCHAR
STARTCHAR lslash
ENCODING 322
SWIDTH 137 0
DWIDTH 1 0
BBX 3 7 -1 0
BITMAP
10
10
10
10
14
60
10
ENDCHAR
STARTCHAR Nacute
ENCODING 323
SWIDTH 541 0
DWIDTH 4 0
BBX 4 7 0 0
BITMAP
10
01
81
61
45
42
41
ENDCHAR
STARTCHAR nacute
ENCODING 324
SWIDTH 483 0
DWIDTH 4 0
BBX 4 6 0 0
BITMAP
04
44
51
91
91
41
ENDCHAR
STARTCHAR Ncommaaccent
ENCODING 325
SWIDTH 541 0
DWIDTH 4 0
BBX 4 8 0 -2
BITMAP
01
81
61
45
42
41
00
04
ENDCHAR
STARTCHAR ncommaaccent
ENCODING 326
SWIDTH 483 0
DWIDTH 4 0
BBX 4 8 0 -3
BITMAP
44
51
91
91
41
00
10
10
ENDCHAR
STARTCHAR Ncaron
ENCODING 327
SWIDTH 541 0
DWIDTH 4 0
BBX 4 7 0 0
BITMAP
14
01
81
61
45
42
41
ENDCHAR
STARTCHAR ncaron
ENCODING 328
SWIDTH 483 0
DWIDTH 4 0
BBX 4 6 0 0
BITMAP
14
44
51
91
91
41
ENDCHAR
STARTCHAR napostrophe
ENCODING 329
SWIDTH 483 0
DWIDTH 4 0
BBX 4 7 0 0
BITMAP
10
10
44
51
91
91
41
ENDCHAR
STARTCHAR Omacron
ENCODING 332
SWIDTH 382 0
DWIDTH 3 0
BBX 3 6 0 0
BITMAP
28
58
44
44
44
60
ENDCHAR
STARTCHAR omacron
ENCODING 333
SWIDTH 266 0
DWIDTH 2 0
BBX 3 6 0 0
BITMAP
54
00
50
50
50
90
ENDCHAR
STARTCHAR Obreve
ENCODING 334
SWIDTH 382 0
DWIDTH 3 0
BBX 3 7 0 0
BITMAP
54
10
58
44
44
44
60
ENDCHAR
STARTCHAR obreve
ENCODING 335
SWIDTH 266 0
DWIDTH 2 0
BBX 2 6 0 0
BITMAP
50
50
50
50
50
90
ENDCHAR
STARTCHAR Ohungarumlaut
ENCODING 336
SWIDTH 382 0
DWIDTH 3 0
BBX 3 7 0 0
BITMAP
18
14
58
44
44
44
60
ENDCHAR
STARTCHAR ohungarumlaut
ENCODING 337
SWIDTH 266 0
DWIDTH 2 0
BBX 2 6 0 0
BITMAP
60
50
50
50
50
90
ENDCHAR
STARTCHAR OE
ENCODING 338
SWIDTH 732 0
DWIDTH 6 0
BBX 6 6 0 0
BITMAP
1540
5900
4440
4900
4850
6540
ENDCHAR
STARTCHAR oe
ENCODING 339
SWIDTH 628 0
DWIDTH 5 0
BBX 5 5 0 0
BITMAP
0100
5940
5900
5480
9500
ENDCHAR
STARTCHAR Racute
ENCODING 340
SWIDTH 503 0
DWIDTH 4 0
BBX 4 8 0 0
BITMAP
04
04
96
44
90
A0
45
40
ENDCHAR
STARTCHAR racute
ENCODING 341
SWIDTH 396 0
DWIDTH 3 0
BBX 3 6 0 0
BITMAP
10
00
54
50
50
50
ENDCHAR
STARTCHAR Rcommaaccent
ENCODING 342
SWIDTH 503 0
DWIDTH 4 0
BBX 4 8 0 -2
BITMAP
96
44
90
A0
45
40
00
14
ENDCHAR
STARTCHAR rcommaaccent
ENCODING 343
SWIDTH 396 0
DWIDTH 3 0
BBX 3 7 0 -3
BITMAP
54
50
50
50
00
10
10
ENDCHAR
STARTCHAR Rcaron
ENCODING 344
SWIDTH 503 0
DWIDTH 4 0
BBX 4 8 0 0
BITMAP
14
00
96
44
90
A0
45
40
ENDCHAR
STARTCHAR rcaron
ENCODING 345
SWIDTH 396 0
DWIDTH 3 0
BBX 3 6 0 0
BITMAP
14
00
54
50
50
50
ENDCHAR
STARTCHAR Sacute
ENCODING 346
SWIDTH 541 0
DWIDTH 4 0
BBX 4 7 0 0
BITMAP
04
14
50
40
55
02
14
ENDCHAR
STARTCHAR sacute
ENCODING 347
SWIDTH 366 0
DWIDTH 3 0
BBX 3 6 0 0
BITMAP
10
00
50
40
58
14
ENDCHAR
STARTCHAR Scircumflex
ENCODING 348
SWIDTH 541 0
DWIDTH 4 0
BBX 4 9 0 0
BITMAP
04
14
11
14
50
40
55
02
14
ENDCHAR
STARTCHAR scircumflex
ENCODING 349
SWIDTH 366 0
DWIDTH 3 0
BBX 3 7 0 0
BITMAP
10
54
44
50
40
58
14
ENDCHAR
STARTCHAR Scedilla
ENCODING 350
SWIDTH 541 0
DWIDTH 4 0
BBX 5 9 0 -3
BITMAP
1400
5000
4000
5500
0200
1400
0500
0240
0100
ENDCHAR
STARTCHAR scedilla
ENCODING 351
SWIDTH 366 0
DWIDTH 3 0
BBX 3 7 0 -3
BITMAP
50
40
58
14
20
08
14
ENDCHAR
STARTCHAR Scaron
ENCODING 352
SWIDTH 541 0
DWIDTH 4 0
BBX 4 7 0 0
BITMAP
14
14
50
40
55
02
14
ENDCHAR
STARTCHAR scaron
ENCODING 353
SWIDTH 366 0
DWIDTH 3 0
BBX 3 6 0 0
BITMAP
54
00
50
40
58
14
ENDCHAR
STARTCHAR Tcommaaccent
ENCODING 354
SWIDTH 595 0
DWIDTH 5 0
BBX 5 9 0 -3
BITMAP
1540
5400
0400
0500
0100
0100
0000
0100
0100
ENDCHAR
STARTCHAR tcommaaccent
ENCODING 355
SWIDTH 268 0
DWIDTH 2 0
BBX 2 8 0 -2
BITMAP
40
50
90
40
40
40
00
50
ENDCHAR
STARTCHAR Tcaron
ENCODING 356
SWIDTH 595 0
DWIDTH 5 0
BBX 5 7 0 0
BITMAP
0500
1540
5400
0400
0500
0100
0100
ENDCHAR
STARTCHAR Tbar
ENCODING 358
SWIDTH 595 0
DWIDTH 5 0
BBX 5 6 0 0
BITMAP
1540
5400
1900
0500
0100
0100
ENDCHAR
STARTCHAR Utilde
ENCODING 360
SWIDTH 450 0
DWIDTH 4 0
BBX 4 8 0 -1
BITMAP
51
04
41
45
49
49
51
01
ENDCHAR
STARTCHAR utilde
ENCODING 361
SWIDTH 387 0
DWIDTH 3 0
BBX 3 6 0 0
BITMAP
54
14
44
44
48
64
ENDCHAR
STARTCHAR Umacron
ENCODING 362
SWIDTH 450 0
DWIDTH 4 0
BBX 4 7 0 -1
BITMAP
54
41
45
49
49
51
01
ENDCHAR
STARTCHAR umacron
ENCODING 363
SWIDTH 387 0
DWIDTH 3 0
BBX 3 6 0 0
BITMAP
54
00
44
44
48
64
ENDCHAR
STARTCHAR Ubreve
ENCODING 364
SWIDTH 450 0
DWIDTH 4 0
BBX 4 7 0 -1
BITMAP
14
45
45
49
49
51
01
ENDCHAR
STARTCHAR ubreve
ENCODING 365
SWIDTH 387 0
DWIDTH 3 0
BBX 3 6 0 0
BITMAP
14
00
44
44
48
64
ENDCHAR
STARTCHAR Uring
ENCODING 366
SWIDTH 450 0
DWIDTH 4 0
BBX 4 8 0 -1
BITMAP
14
14
41
45
49
49
51
01
ENDCHAR
STARTCHAR uring
ENCODING 367
SWIDTH 387 0
DWIDTH 3 0
BBX 3 6 0 0
BITMAP
10
54
44
44
48
64
ENDCHAR
STARTCHAR Uhungarumlaut
ENCODING 368
SWIDTH 450 0
DWIDTH 4 0
BBX 4 8 0 -1
BITMAP
24
00
41
45
49
49
51
01
ENDCHAR
STARTCHAR uhungarumlaut
ENCODING 369
SWIDTH 387 0
DWIDTH 3 0
BBX 3 5 0 0
BITMAP
60
44
44
48
64
ENDCHAR
STARTCHAR Uogonek
ENCODING 370
SWIDTH 450 0
DWIDTH 4 0
BBX 4 7 0 -2
BITMAP
41
45
49
49
51
05
05
ENDCHAR
STARTCHAR uogonek
ENCODING 371
SWIDTH 387 0
DWIDTH 3 0
BBX 4 6 0 -2
BITMAP
44
44
48
68
14
05
ENDCHAR
STARTCHAR Wcircumflex
ENCODING 372
SWIDTH 878 0
DWIDTH 7 0
BBX 7 9 0 0
BITMAP
0100
0540
0440
0004
4204
4154
1450
2460
1410
ENDCHAR
STARTCHAR wcircumflex
ENCODING 373
SWIDTH 566 0
DWIDTH 5 0
BBX 5 7 0 0
BITMAP
1400
1100
0000
5500
6500
3240
2000
ENDCHAR
STARTCHAR Ycircumflex
ENCODING 374
SWIDTH 483 0
DWIDTH 4 0
BBX 4 9 0 0
BITMAP
10
14
41
01
41
14
18
04
10
ENDCHAR
STARTCHAR ycircumflex
ENCODING 375
SWIDTH 363 0
DWIDTH 3 0
BBX 3 11 0 -3
BITMAP
10
54
44
00
44
54
28
08
04
04
04
ENDCHAR
STARTCHAR Ydieresis
ENCODING 376
SWIDTH 483 0
DWIDTH 4 0
BBX 4 6 0 0
BITMAP
15
41
14
18
04
10
ENDCHAR
STARTCHAR Zacute
ENCODING 377
SWIDTH 670 0
DWIDTH 5 0
BBX 5 8 0 0
BITMAP
0400
0000
5540
0200
0500
1400
1000
A940
ENDCHAR
STARTCHAR zacute
ENCODING 378
SWIDTH 618 0
DWIDTH 5 0
BBX 5 6 0 0
BITMAP
0400
0000
5800
0800
1000
2640
ENDCHAR
STARTCHAR Zdotaccent
ENCODING 379
SWIDTH 670 0
DWIDTH 5 0
BBX 5 7 0 0
BITMAP
0400
5540
0200
0500
1400
1000
A940
ENDCHAR
STARTCHAR zdotaccent
ENCODING 380
SWIDTH 618 0
DWIDTH 5 0
BBX 5 5 0 0
BITMAP
0400
5800
0800
1000
2640
ENDCHAR
STARTCHAR Zcaron
ENCODING 381
SWIDTH 670 0
DWIDTH 5 0
BBX 5 7 0 0
BITMAP
0500
5540
0200
0500
1400
1000
A940
ENDCHAR
STARTCHAR zcaron
ENCODING 382
SWIDTH 618 0
DWIDTH 5 0
BBX 5 5 0 0
BITMAP
1400
5800
0800
1000
2640
ENDCHAR
STARTCHAR florin
ENCODING 402
SWIDTH 345 0
DWIDTH 3 0
BBX 3 9 0 -2
BITMAP
20
50
50
64
50
10
10
10
50
ENDCHAR
STARTCHAR AEacute
ENCODING 508
SWIDTH 708 0
DWIDTH 6 0
BBX 6 8 0 0
BITMAP
0400
0000
5540
5800
5840
5D00
9850
4500
ENDCHAR
STARTCHAR aeacute
ENCODING 509
SWIDTH 705 0
DWIDTH 6 0
BBX 5 6 0 0
BITMAP
0100
0540
2980
5D00
6840
8540
ENDCHAR
STARTCHAR Oslashacute
ENCODING 510
SWIDTH 382 0
DWIDTH 3 0
BBX 3 8 0 -1
BITMAP
14
14
58
54
54
54
A0
40
ENDCHAR
STARTCHAR oslashacute
ENCODING 511
SWIDTH 266 0
DWIDTH 2 0
BBX 2 7 0 -1
BITMAP
10
50
60
60
90
90
40
ENDCHAR
STARTCHAR Scommaaccent
ENCODING 536
SWIDTH 541 0
DWIDTH 4 0
BBX 4 8 0 -2
BITMAP
14
50
40
55
02
14
00
04
ENDCHAR
STARTCHAR scommaaccent
ENCODING 537
SWIDTH 366 0
DWIDTH 3 0
BBX 3 7 0 -3
BITMAP
50
40
58
14
00
10
10
ENDCHAR
STARTCHAR circumflex
ENCODING 710
SWIDTH 390 0
DWIDTH 3 0
BBX 3 3 0 5
BITMAP
10
54
44
ENDCHAR
STARTCHAR caron
ENCODING 711
SWIDTH 390 0
DWIDTH 3 0
BBX 2 1 1 5
BITMAP
50
ENDCHAR
STARTCHAR breve
ENCODING 728
SWIDTH 390 0
DWIDTH 3 0
BBX 3 1 0 5
BITMAP
54
ENDCHAR
STARTCHAR dotaccent
ENCODING 729
SWIDTH 128 0
DWIDTH 1 0
BBX 1 1 0 4
BITMAP
40
ENDCHAR
STARTCHAR ring
ENCODING 730
SWIDTH 266 0
DWIDTH 2 0
BBX 2 2 0 4
BITMAP
50
60
ENDCHAR
STARTCHAR ogonek
ENCODING 731
SWIDTH 366 0
DWIDTH 3 0
BBX 2 2 1 -2
BITMAP
40
90
ENDCHAR
STARTCHAR tilde
ENCODING 732
SWIDTH 458 0
DWIDTH 4 0
BBX 3 2 0 4
BITMAP
54
04
ENDCHAR
STARTCHAR hungarumlaut
ENCODING 733
SWIDTH 239 0
DWIDTH 2 0
BBX 2 1 0 4
BITMAP
50
ENDCHAR
STARTCHAR Wgrave
ENCODING 7808
SWIDTH 878 0
DWIDTH 7 0
BBX 7 8 0 0
BITMAP
0100
0000
0004
4204
4154
1450
2460
1410
ENDCHAR
STARTCHAR wgrave
ENCODING 7809
SWIDTH 566 0
DWIDTH 5 0
BBX 5 6 0 0
BITMAP
0400
0000
5500
6500
3240
2000
ENDCHAR
STARTCHAR Wacute
ENCODING 7810
SWIDTH 878 0
DWIDTH 7 0
BBX 7 8 0 0
BITMAP
0100
0000
0004
4204
4154
1450
2460
1410
ENDCHAR
STARTCHAR wacute
ENCODING 7811
SWIDTH 566 0
DWIDTH 5 0
BBX 5 6 0 0
BITMAP
0400
0000
5500
6500
3240
2000
ENDCHAR
STARTCHAR Wdieresis
ENCODING 7812
SWIDTH 878 0
DWIDTH 7 0
BBX 7 7 0 0
BITMAP
0140
0004
4204
4154
1450
2460
1410
ENDCHAR
STARTCHAR wdieresis
ENCODING 7813
SWIDTH 566 0
DWIDTH 5 0
BBX 5 6 0 0
BITMAP
1400
0000
5500
6500
3240
2000
ENDCHAR
STARTCHAR Ygrave
ENCODING 7922
SWIDTH 483 0
DWIDTH 4 0
BBX 4 8 0 0
BITMAP
10
00
01
41
14
18
04
10
ENDCHAR
STARTCHAR ygrave
ENCODING 7923
SWIDTH 363 0
DWIDTH 3 0
BBX 3 9 0 -3
BITMAP
10
00
44
54
28
08
04
04
04
ENDCHAR
STARTCHAR endash
ENCODING 8211
SWIDTH 399 0
DWIDTH 3 0
BBX 3 2 0 1
BITMAP
14
50
ENDCHAR
STARTCHAR emdash
ENCODING 8212
SWIDTH 549 0
DWIDTH 4 0
BBX 4 2 0 1
BITMAP
05
54
ENDCHAR
STARTCHAR quoteleft
ENCODING 8216
SWIDTH 155 0
DWIDTH 1 0
BBX 1 2 0 3
BITMAP
40
40
ENDCHAR
STARTCHAR quoteright
ENCODING 8217
SWIDTH 155 0
DWIDTH 1 0
BBX 1 2 0 3
BITMAP
40
40
ENDCHAR
STARTCHAR quotesinglbase
ENCODING 8218
SWIDTH 155 0
DWIDTH 1 0
BBX 1 2 0 0
BITMAP
40
40
ENDCHAR
STARTCHAR quotedblleft
ENCODING 8220
SWIDTH 212 0
DWIDTH 2 0
BBX 2 2 0 4
BITMAP
50
50
ENDCHAR
STARTCHAR quotedblright
ENCODING 8221
SWIDTH 212 0
DWIDTH 2 0
BBX 2 2 0 4
BITMAP
50
50
ENDCHAR
STARTCHAR quotedblbase
ENCODING 8222
SWIDTH 212 0
DWIDTH 2 0
BBX 2 2 0 0
BITMAP
50
50
ENDCHAR
STARTCHAR dagger
ENCODING 8224
SWIDTH 268 0
DWIDTH 2 0
BBX 2 6 0 0
BITMAP
40
50
90
40
40
40
ENDCHAR
STARTCHAR daggerdbl
ENCODING 8225
SWIDTH 326 0
DWIDTH 3 0
BBX 3 6 0 0
BITMAP
10
14
A0
60
10
10
ENDCHAR
STARTCHAR bullet
ENCODING 8226
SWIDTH 189 0
DWIDTH 2 0
BBX 2 1 0 2
BITMAP
90
ENDCHAR
STARTCHAR ellipsis
ENCODING 8230
SWIDTH 387 0
DWIDTH 3 0
BBX 3 1 0 0
BITMAP
54
ENDCHAR
STARTCHAR guilsinglleft
ENCODING 8249
SWIDTH 409 0
DWIDTH 3 0
BBX 3 4 0 1
BITMAP
08
10
50
18
ENDCHAR
STARTCHAR guilsinglright
ENCODING 8250
SWIDTH 450 0
DWIDTH 4 0
BBX 3 4 0 1
BITMAP
64
08
14
50
ENDCHAR
STARTCHAR fraction
ENCODING 8260
SWIDTH 306 0
DWIDTH 2 0
BBX 2 6 0 -1
BITMAP
10
10
10
40
40
40
ENDCHAR
STARTCHAR Euro
ENCODING 8364
SWIDTH 589 0
DWIDTH 5 0
BBX 5 6 0 0
BITMAP
0500
1000
2400
6400
6040
1600
ENDCHAR
STARTCHAR trademark
ENCODING 8482
SWIDTH 1278 0
DWIDTH 10 0
BBX 10 6 0 0
BITMAP
156050
541450
041450
051210
012010
012010
ENDCHAR
STARTCHAR minus
ENCODING 8722
SWIDTH 358 0
DWIDTH 3 0
BBX 3 1 0 2
BITMAP
54
ENDCHAR
STARTCHAR commaaccent
ENCODING 63171
SWIDTH 450 0
DWIDTH 4 0
BBX 1 2 1 -3
BITMAP
40
40
ENDCHAR
STARTCHAR fi
ENCODING 64257
SWIDTH 409 0
DWIDTH 3 0
BBX 3 7 0 0
BITMAP
20
54
54
68
54
14
14
ENDCHAR
STARTCHAR fl
ENCODING 64258
SWIDTH 416 0
DWIDTH 3 0
BBX 3 7 0 0
BITMAP
24
54
54
68
54
14
14
ENDCHAR
STARTCHAR .notdef
ENCODING -1
SWIDTH 450 0
DWIDTH 4 0
BBX 1 1 0 0
BITMAP
00
ENDCHAR
STARTCHAR .null
ENCODING -1
SWIDTH 0 0
DWIDTH 0 0
BBX 1 1 0 0
BITMAP
00
ENDCHAR
STARTCHAR nonmarkingreturn
ENCODING -1
SWIDTH 450 0
DWIDTH 4 0
BBX 1 1 0 0
BITMAP
00
ENDCHAR
ENDFONT
